<svg xmlns="http://www.w3.org/2000/svg" width="36.4" height="70" viewBox="0 0 36 70">
  <path fill="#fff" d="M36 43a14 14 0 00-1-3 10 10 0 00-2-3 25 25 0 00-3-2 24 24 0 00-3-1l-3-2-3-1-3-1-2-1a14 14 0 01-2-1 17 17 0 01-2-2 4 4 0 01-1-1 5 5 0 012-7 10 10 0 016-1 13 13 0 014 0 17 17 0 012 1 20 20 0 013 2l1 1h1a1 1 0 001 0 1 1 0 001 0l3-6a1 1 0 000-2 14 14 0 00-2-1 19 19 0 00-3-2 25 25 0 00-3-1 22 22 0 00-5-1V1a1 1 0 00-1-1h-5a1 1 0 00-1 0 1 1 0 000 1v7a18 18 0 00-10 6 13 13 0 00-4 9 14 14 0 000 3 16 16 0 001 3 10 10 0 001 2 24 24 0 002 2 14 14 0 002 1l2 2 3 1 2 1 3 1 3 1 2 2a11 11 0 013 1 7 7 0 011 2 4 4 0 011 2 5 5 0 01-3 5 9 9 0 01-5 1 14 14 0 01-3 0 20 20 0 01-10-5 1 1 0 00-1 0 1 1 0 00-1 0l-4 5a1 1 0 000 2l1 1a23 23 0 002 1 24 24 0 007 4 25 25 0 005 1v7a1 1 0 001 1h5a1 1 0 001-1v-7a17 17 0 0011-5 15 15 0 003-11 13 13 0 000-3z"/>
</svg>