<svg xmlns="http://www.w3.org/2000/svg" width="55" height="70">
  <path fill="#fff" d="M14.3 47.7a24.8 24.8 0 004.3 4.7 40 40 0 005.3 3.9 60.6 60.6 0 006 3.2h.1a19.6 19.6 0 01-2.5-8.7 7.9 7.9 0 011-3.7 11.8 11.8 0 012.4-3.2l3.3-2.8 3.6-3a31 31 0 003.3-3.4 14.5 14.5 0 002.5-4.3 16.2 16.2 0 00.9-5.6 23.7 23.7 0 00-1-7.1 21.8 21.8 0 00-2.8-5.9 24.8 24.8 0 00-4.3-4.7 40 40 0 00-5.3-3.9 60.6 60.6 0 00-6-3.2H25a20.2 20.2 0 012.5 8.7 7.9 7.9 0 01-1 3.7 11.8 11.8 0 01-2.4 3.2l-3.3 2.8-3.6 3a31 31 0 00-3.3 3.4 14.5 14.5 0 00-2.5 4.3 16.2 16.2 0 00-.9 5.6 23.7 23.7 0 001 7.1 21.8 21.8 0 002.8 5.9zM54.6 65.1a1.2 1.2 0 00-.8-.4H1.3a1.2 1.2 0 00-1 .4 1.3 1.3 0 00-.3 1v2.6a1.3 1.3 0 00.4 1 1.2 1.2 0 00.9.3h52.5a1.2 1.2 0 00.8-.4 1.3 1.3 0 00.4-1v-2.5a1.3 1.3 0 00-.4-1z"/>
</svg>