<svg xmlns="http://www.w3.org/2000/svg" width="55" height="70">
  <path fill="#fff" d="M23.7 0a2.6 2.6 0 00-1.8.7 2.3 2.3 0 00-.8 1.8v16.2a2.3 2.3 0 01-.8 1.8 2.7 2.7 0 01-3.7 0 2.3 2.3 0 01-.8-1.8V2.5A2.3 2.3 0 0015 .7a2.7 2.7 0 00-3.7 0 2.3 2.3 0 00-.8 1.8v16.2a2.3 2.3 0 01-.7 1.8 2.7 2.7 0 01-3.7 0 2.3 2.3 0 01-.8-1.8V2.5A2.3 2.3 0 004.5.7 2.7 2.7 0 00.8.7 2.3 2.3 0 000 2.5v25a7 7 0 001.5 4.3 7.7 7.7 0 003.8 2.8V65a4.7 4.7 0 001.5 3.5 5.2 5.2 0 003.7 1.5h5.3a5.2 5.2 0 003.7-1.5 4.7 4.7 0 001.6-3.5V34.6a7.7 7.7 0 003.8-2.8 7 7 0 001.4-4.3v-25a2.3 2.3 0 00-.7-1.8 2.6 2.6 0 00-1.9-.7zM54.2.7a2.6 2.6 0 00-1.8-.7H41.8a13 13 0 00-9.3 3.7 11.7 11.7 0 00-3.8 8.8v31.3a1.2 1.2 0 00.4.8 1.3 1.3 0 00.9.4h9.2v20a4.7 4.7 0 001.6 3.5 5.2 5.2 0 003.7 1.5h5.2a5.2 5.2 0 003.7-1.5A4.7 4.7 0 0055 65V2.5a2.3 2.3 0 00-.8-1.8z"/>
</svg>