<svg xmlns="http://www.w3.org/2000/svg" width="70" height="55.3">
  <path fill="#fff" d="M69.7 11.4a49.3 49.3 0 00-1-4.9A13.2 13.2 0 0067 2.1 3.4 3.4 0 0064.1.3q-.1-.7-1.7.2t-1.4.6q.1-.3-1 .8L58.8 3l-1.1 1.2a10 10 0 01-4.5 2.2 31.5 31.5 0 01-6.4 1l-7 .1-7 .4a25.6 25.6 0 00-5.6 1 36.5 36.5 0 00-8 3.7 34.1 34.1 0 00-6.6 5.5 23.3 23.3 0 00-4.7 7.2 22.2 22.2 0 00-1.7 8.6 23.3 23.3 0 00.4 4 12.8 12.8 0 00.6 1.7 9.6 9.6 0 01.5 1.5q0 .8-1.2 1.9A28.2 28.2 0 014 45.2a14 14 0 00-2.7 2.5 4.7 4.7 0 00-1.2 3 2.3 2.3 0 000 .4 1.8 1.8 0 00.2.4l.2.4.2.4a17.2 17.2 0 001 1.7A3.6 3.6 0 003 55a4.3 4.3 0 002 .3 3.4 3.4 0 002.3-1.2 13.4 13.4 0 002-2.7 27.5 27.5 0 011.8-2.8q1-1.2 1.6-1.2a11.5 11.5 0 013.7 1.4l3.5 1.7a34.4 34.4 0 0011.1 1.8 37.6 37.6 0 0017.2-4.2 44.5 44.5 0 0014-10.5 32.2 32.2 0 007.1-15 37.7 37.7 0 00.8-7.5 28.3 28.3 0 00-.3-3.7zM49.3 24.6a2.4 2.4 0 01-1.8.7 33.3 33.3 0 00-12.2 2 35.3 35.3 0 00-10.5 7L22 36.7l-2.8 2.8a2.6 2.6 0 01-1.8.7 2.5 2.5 0 01-2.5-2.5 2.6 2.6 0 01.7-1.7 64.8 64.8 0 019.2-8.6 36.4 36.4 0 0110.2-5.2 38.4 38.4 0 0112.4-2 2.5 2.5 0 011.8 4.3z"/>
</svg>