<svg xmlns="http://www.w3.org/2000/svg" width="16" height="13.5">
  <path d="M11.4 12a1.5 1.5 0 10.5-1 1.5 1.5 0 00-.5 1zM15.8 1.3a.6.6 0 00-.4-.1H3.8V.9.7a1.5 1.5 0 00-.1-.3.7.7 0 00-.2-.2.6.6 0 00-.4-.2H.6a.6.6 0 00-.4.2.5.5 0 000 .8.6.6 0 00.4.2h2l1.7 7.4L4 9l-.3.5a1 1 0 00-.1.4.5.5 0 00.2.4.6.6 0 00.4.2h9.8a.6.6 0 00.5-.2.5.5 0 000-.8.6.6 0 00-.5-.2H5.3a1.7 1.7 0 00.2-.6 1 1 0 000-.2v-.2V8l10-1.1a.6.6 0 00.3-.2.6.6 0 00.2-.4V1.7a.5.5 0 00-.2-.4zM3.5 12a1.5 1.5 0 10.5-1 1.5 1.5 0 00-.5 1z"/>
</svg>