<svg xmlns="http://www.w3.org/2000/svg" width="16" height="17.3">
  <path d="M15.5 9.7A3 3 0 0016 8a2.7 2.7 0 00-2.7-2.7h-1.8a4.6 4.6 0 00.5-2 4.3 4.3 0 00-.4-1.9 2.3 2.3 0 00-1-1A3.6 3.6 0 009 0a1.3 1.3 0 00-1 .4 2.5 2.5 0 00-.6 1.1l-.3 1.3a1.8 1.8 0 01-.4 1L5.7 5a9.2 9.2 0 01-1.5 1.6H1.3A1.3 1.3 0 000 8v6.7A1.3 1.3 0 001.3 16h3a7.7 7.7 0 011.5.4l2.2.7a8.4 8.4 0 002 .2h1.3a3.3 3.3 0 002.4-.8 3 3 0 00.9-2.3 3 3 0 00.6-1.8 3.2 3.2 0 000-.5 3 3 0 00.4-1.5 2.7 2.7 0 00-.1-.7zm-13 4.8a.7.7 0 11.2-.5.6.6 0 01-.2.5zm12-5.7q-.3.5-.6.5a1.4 1.4 0 01.2.5 1.9 1.9 0 01.1.6 1.6 1.6 0 01-.5 1.2 1.4 1.4 0 01.2.8 1.8 1.8 0 01-.2.7 1.2 1.2 0 01-.5.6 3.6 3.6 0 010 .6q0 1.7-2 1.7H10a11.5 11.5 0 01-3.6-.8h-.3l-.3-.2-.4-.1-.4-.1-.3-.1a2.1 2.1 0 00-.4 0H4V8h.3a.9.9 0 00.4 0 1.8 1.8 0 00.4-.4l.4-.3a6 6 0 00.4-.5l.4-.4.3-.5.3-.3.8-1a2.6 2.6 0 00.6-1l.3-1.4a1.7 1.7 0 01.4-.9 1.5 1.5 0 011.3.5 2.7 2.7 0 01.4 1.5 4.3 4.3 0 01-.5 1.7 4.2 4.2 0 00-.5 1.7h3.6a1.3 1.3 0 011 .4 1.3 1.3 0 01.4.9 2 2 0 01-.3.8z"/>
</svg>