<svg xmlns="http://www.w3.org/2000/svg" width="70" height="67.3">
  <path fill="#fff" d="M32.2 32.4v24.2a5.3 5.3 0 01-10.6 0 2.7 2.7 0 00-5.4 0 10.7 10.7 0 0021.4 0V32.4a8 8 0 00-5.4 0zM37.7 6.8V2.7a2.7 2.7 0 00-5.4 0v4h5.4z"/>
  <path fill="#fff" d="M70 32.7A29.2 29.2 0 0065 22.2a31.2 31.2 0 00-8.2-7.8 39.2 39.2 0 00-10.4-4.7 41.4 41.4 0 00-26.7 1.2 34.4 34.4 0 00-12.5 8.5A29.5 29.5 0 000 32.7a.7.7 0 000 .3 1.3 1.3 0 00.4 1 1.3 1.3 0 001 .4 1.5 1.5 0 001-.4 18.2 18.2 0 013.8-3 9.2 9.2 0 014.3-.9 10.1 10.1 0 015.4 1.6 15 15 0 014.3 4L21 37l.6 1a1.4 1.4 0 001.2.7 1.4 1.4 0 001.2-.7l.6-1 .7-1.2a15 15 0 014.3-4 10 10 0 0110.8 0 15 15 0 014.3 4l.7 1.2.6 1a1.4 1.4 0 001.2.7 1.4 1.4 0 001.2-.7l.6-1 .8-1.2a15 15 0 014.3-4 10.1 10.1 0 015.4-1.6 9.2 9.2 0 014.3 1 18.2 18.2 0 013.9 2.8 1.5 1.5 0 001 .5 1.3 1.3 0 00.9-.4 1.3 1.3 0 00.4-1 .7.7 0 000-.3z"/>
</svg>